HIERARCHY
ROOT mixamorig:Hips
{
	OFFSET 0.003516 88.465813 1.822714
	CHANNELS 6 Xposition Yposition Zposition Xrotation Yrotation Zrotation
	JOINT mixamorig:Spine
	{
		OFFSET 0.005120 8.711960 -0.691022
		CHANNELS 3 Xrotation Yrotation Zrotation
		JOINT mixamorig:Spine1
		{
			OFFSET -0.009150 8.660309 -1.274966
			CHANNELS 3 Xrotation Yrotation Zrotation
			JOINT mixamorig:Spine2
			{
				OFFSET 0.006324 9.852470 -1.856973
				CHANNELS 3 Xrotation Yrotation Zrotation
				JOINT mixamorig:Neck
				{
					OFFSET 0.016319 11.420799 -0.263317
					CHANNELS 3 Xrotation Yrotation Zrotation
					JOINT mixamorig:Head
					{
						OFFSET -0.019249 9.262413 2.362541
						CHANNELS 3 Xrotation Yrotation Zrotation
						JOINT mixamorig:HeadTop_End
						{
							OFFSET -0.003338 20.641678 4.374156
							CHANNELS 3 Xrotation Yrotation Zrotation
							JOINT mixamorig:HeadTop_End_end
							{
								OFFSET 0.000000 14.712143 0.000000
								CHANNELS 3 Xrotation Yrotation Zrotation
								End Site
								{
									OFFSET 0.000000 14.712143 0.000000
								}
							}
						}
						JOINT mixamorig:RightEye
						{
							OFFSET -4.115469 7.286621 7.915824
							CHANNELS 3 Xrotation Yrotation Zrotation
							JOINT mixamorig:RightEye_end
							{
								OFFSET 0.000000 14.712143 0.000000
								CHANNELS 3 Xrotation Yrotation Zrotation
								End Site
								{
									OFFSET 0.000000 14.712143 0.000000
								}
							}
						}
						JOINT mixamorig:LeftEye
						{
							OFFSET 4.109910 7.286469 7.915824
							CHANNELS 3 Xrotation Yrotation Zrotation
							JOINT mixamorig:LeftEye_end
							{
								OFFSET 0.000000 14.712143 0.000000
								CHANNELS 3 Xrotation Yrotation Zrotation
								End Site
								{
									OFFSET 0.000000 14.712143 0.000000
								}
							}
						}
					}
				}
				JOINT mixamorig:LeftShoulder
				{
					OFFSET 5.616941 6.732201 -0.345732
					CHANNELS 3 Xrotation Yrotation Zrotation
					JOINT mixamorig:LeftArm
					{
						OFFSET 10.664845 -0.188469 -2.440738
						CHANNELS 3 Xrotation Yrotation Zrotation
						JOINT mixamorig:LeftForeArm
						{
							OFFSET 27.383577 0.285019 -2.015105
							CHANNELS 3 Xrotation Yrotation Zrotation
							JOINT mixamorig:LeftHand
							{
								OFFSET 21.293716 -0.314583 0.679340
								CHANNELS 3 Xrotation Yrotation Zrotation
								JOINT mixamorig:LeftHandMiddle1
								{
									OFFSET 9.763229 -1.321671 0.816021
									CHANNELS 3 Xrotation Yrotation Zrotation
									JOINT mixamorig:LeftHandMiddle2
									{
										OFFSET 2.625031 -0.375854 0.170624
										CHANNELS 3 Xrotation Yrotation Zrotation
										JOINT mixamorig:LeftHandMiddle3
										{
											OFFSET 2.488792 -0.572639 0.028785
											CHANNELS 3 Xrotation Yrotation Zrotation
											JOINT mixamorig:LeftHandMiddle4
											{
												OFFSET 2.802010 -0.426804 0.068342
												CHANNELS 3 Xrotation Yrotation Zrotation
												JOINT mixamorig:LeftHandMiddle4_end
												{
													OFFSET 0.000000 2.835152 0.000000
													CHANNELS 3 Xrotation Yrotation Zrotation
													End Site
													{
														OFFSET 0.000000 2.835152 0.000000
													}
												}
											}
										}
									}
								}
								JOINT mixamorig:LeftHandThumb1
								{
									OFFSET 2.764015 -1.495537 2.908529
									CHANNELS 3 Xrotation Yrotation Zrotation
									JOINT mixamorig:LeftHandThumb2
									{
										OFFSET 2.537514 -1.378227 2.355325
										CHANNELS 3 Xrotation Yrotation Zrotation
										JOINT mixamorig:LeftHandThumb3
										{
											OFFSET 2.272415 -1.478157 1.771937
											CHANNELS 3 Xrotation Yrotation Zrotation
											JOINT mixamorig:LeftHandThumb4
											{
												OFFSET 1.532486 -0.855270 1.601493
												CHANNELS 3 Xrotation Yrotation Zrotation
												JOINT mixamorig:LeftHandThumb4_end
												{
													OFFSET 0.000000 2.375877 0.000000
													CHANNELS 3 Xrotation Yrotation Zrotation
													End Site
													{
														OFFSET 0.000000 2.375877 0.000000
													}
												}
											}
										}
									}
								}
								JOINT mixamorig:LeftHandIndex1
								{
									OFFSET 9.375107 -1.129349 3.172469
									CHANNELS 3 Xrotation Yrotation Zrotation
									JOINT mixamorig:LeftHandIndex2
									{
										OFFSET 2.650261 -0.715843 0.317083
										CHANNELS 3 Xrotation Yrotation Zrotation
										JOINT mixamorig:LeftHandIndex3
										{
											OFFSET 2.499153 -0.696144 0.283129
											CHANNELS 3 Xrotation Yrotation Zrotation
											JOINT mixamorig:LeftHandIndex4
											{
												OFFSET 2.282646 -0.400391 0.225909
												CHANNELS 3 Xrotation Yrotation Zrotation
												JOINT mixamorig:LeftHandIndex4_end
												{
													OFFSET 0.000000 2.328484 0.000000
													CHANNELS 3 Xrotation Yrotation Zrotation
													End Site
													{
														OFFSET 0.000000 2.328484 0.000000
													}
												}
											}
										}
									}
								}
								JOINT mixamorig:LeftHandRing1
								{
									OFFSET 9.413681 -1.525459 -1.182427
									CHANNELS 3 Xrotation Yrotation Zrotation
									JOINT mixamorig:LeftHandRing2
									{
										OFFSET 2.419609 -0.367126 -0.302248
										CHANNELS 3 Xrotation Yrotation Zrotation
										JOINT mixamorig:LeftHandRing3
										{
											OFFSET 2.323944 -0.438530 -0.266254
											CHANNELS 3 Xrotation Yrotation Zrotation
											JOINT mixamorig:LeftHandRing4
											{
												OFFSET 2.594856 -0.567017 -0.193109
												CHANNELS 3 Xrotation Yrotation Zrotation
												JOINT mixamorig:LeftHandRing4_end
												{
													OFFSET 0.000000 2.663086 0.000000
													CHANNELS 3 Xrotation Yrotation Zrotation
													End Site
													{
														OFFSET 0.000000 2.663086 0.000000
													}
												}
											}
										}
									}
								}
								JOINT mixamorig:LeftHandPinky1
								{
									OFFSET 8.696220 -1.924660 -3.265638
									CHANNELS 3 Xrotation Yrotation Zrotation
									JOINT mixamorig:LeftHandPinky2
									{
										OFFSET 2.567070 -0.415382 -0.492817
										CHANNELS 3 Xrotation Yrotation Zrotation
										JOINT mixamorig:LeftHandPinky3
										{
											OFFSET 1.537094 -0.314445 -0.346561
											CHANNELS 3 Xrotation Yrotation Zrotation
											JOINT mixamorig:LeftHandPinky4
											{
												OFFSET 1.971329 -0.203903 -0.323109
												CHANNELS 3 Xrotation Yrotation Zrotation
												JOINT mixamorig:LeftHandPinky4_end
												{
													OFFSET 0.000000 2.008011 0.000000
													CHANNELS 3 Xrotation Yrotation Zrotation
													End Site
													{
														OFFSET 0.000000 2.008011 0.000000
													}
												}
											}
										}
									}
								}
							}
						}
					}
				}
				JOINT mixamorig:RightShoulder
				{
					OFFSET -5.580283 6.737488 -0.344368
					CHANNELS 3 Xrotation Yrotation Zrotation
					JOINT mixamorig:RightArm
					{
						OFFSET -10.679359 -0.184799 -2.383892
						CHANNELS 3 Xrotation Yrotation Zrotation
						JOINT mixamorig:RightForeArm
						{
							OFFSET -27.441252 0.296532 -1.826581
							CHANNELS 3 Xrotation Yrotation Zrotation
							JOINT mixamorig:RightHand
							{
								OFFSET -21.289719 -0.299965 0.799080
								CHANNELS 3 Xrotation Yrotation Zrotation
								JOINT mixamorig:RightHandMiddle1
								{
									OFFSET -9.759789 -1.315895 0.859254
									CHANNELS 3 Xrotation Yrotation Zrotation
									JOINT mixamorig:RightHandMiddle2
									{
										OFFSET -2.623657 -0.374268 0.182171
										CHANNELS 3 Xrotation Yrotation Zrotation
										JOINT mixamorig:RightHandMiddle3
										{
											OFFSET -2.488808 -0.571327 0.039090
											CHANNELS 3 Xrotation Yrotation Zrotation
											JOINT mixamorig:RightHandMiddle4
											{
												OFFSET -2.801598 -0.426552 0.079908
												CHANNELS 3 Xrotation Yrotation Zrotation
												JOINT mixamorig:RightHandMiddle4_end
												{
													OFFSET 0.000000 2.835014 0.000000
													CHANNELS 3 Xrotation Yrotation Zrotation
													End Site
													{
														OFFSET 0.000000 2.835014 0.000000
													}
												}
											}
										}
									}
								}
								JOINT mixamorig:RightHandThumb1
								{
									OFFSET -2.751724 -1.492180 2.922981
									CHANNELS 3 Xrotation Yrotation Zrotation
									JOINT mixamorig:RightHandThumb2
									{
										OFFSET -2.528816 -1.377510 2.366953
										CHANNELS 3 Xrotation Yrotation Zrotation
										JOINT mixamorig:RightHandThumb3
										{
											OFFSET -2.266449 -1.477386 1.780052
											CHANNELS 3 Xrotation Yrotation Zrotation
											JOINT mixamorig:RightHandThumb4
											{
												OFFSET -1.523636 -0.854614 1.606638
												CHANNELS 3 Xrotation Yrotation Zrotation
												JOINT mixamorig:RightHandThumb4_end
												{
													OFFSET 0.000000 2.373421 0.000000
													CHANNELS 3 Xrotation Yrotation Zrotation
													End Site
													{
														OFFSET 0.000000 2.373421 0.000000
													}
												}
											}
										}
									}
								}
								JOINT mixamorig:RightHandIndex1
								{
									OFFSET -9.363747 -1.122047 3.218087
									CHANNELS 3 Xrotation Yrotation Zrotation
									JOINT mixamorig:RightHandIndex2
									{
										OFFSET -2.646698 -0.715996 0.326493
										CHANNELS 3 Xrotation Yrotation Zrotation
										JOINT mixamorig:RightHandIndex3
										{
											OFFSET -2.495895 -0.695503 0.293396
											CHANNELS 3 Xrotation Yrotation Zrotation
											JOINT mixamorig:RightHandIndex4
											{
												OFFSET -2.277405 -0.394569 0.233073
												CHANNELS 3 Xrotation Yrotation Zrotation
												JOINT mixamorig:RightHandIndex4_end
												{
													OFFSET 0.000000 2.323059 0.000000
													CHANNELS 3 Xrotation Yrotation Zrotation
													End Site
													{
														OFFSET 0.000000 2.323059 0.000000
													}
												}
											}
										}
									}
								}
								JOINT mixamorig:RightHandRing1
								{
									OFFSET -9.417229 -1.519936 -1.141468
									CHANNELS 3 Xrotation Yrotation Zrotation
									JOINT mixamorig:RightHandRing2
									{
										OFFSET -2.421570 -0.365341 -0.291474
										CHANNELS 3 Xrotation Yrotation Zrotation
										JOINT mixamorig:RightHandRing3
										{
											OFFSET -2.326500 -0.437958 -0.254637
											CHANNELS 3 Xrotation Yrotation Zrotation
											JOINT mixamorig:RightHandRing4
											{
												OFFSET -2.598877 -0.563599 -0.182403
												CHANNELS 3 Xrotation Yrotation Zrotation
												JOINT mixamorig:RightHandRing4_end
												{
													OFFSET 0.000000 2.665543 0.000000
													CHANNELS 3 Xrotation Yrotation Zrotation
													End Site
													{
														OFFSET 0.000000 2.665543 0.000000
													}
												}
											}
										}
									}
								}
								JOINT mixamorig:RightHandPinky1
								{
									OFFSET -8.712410 -1.919441 -3.224456
									CHANNELS 3 Xrotation Yrotation Zrotation
									JOINT mixamorig:RightHandPinky2
									{
										OFFSET -2.569084 -0.412773 -0.482045
										CHANNELS 3 Xrotation Yrotation Zrotation
										JOINT mixamorig:RightHandPinky3
										{
											OFFSET -1.540543 -0.314758 -0.342592
											CHANNELS 3 Xrotation Yrotation Zrotation
											JOINT mixamorig:RightHandPinky4
											{
												OFFSET -1.974892 -0.200142 -0.312695
												CHANNELS 3 Xrotation Yrotation Zrotation
												JOINT mixamorig:RightHandPinky4_end
												{
													OFFSET 0.000000 2.009476 0.000000
													CHANNELS 3 Xrotation Yrotation Zrotation
													End Site
													{
														OFFSET 0.000000 2.009476 0.000000
													}
												}
											}
										}
									}
								}
							}
						}
					}
				}
			}
		}
	}
	JOINT mixamorig:LeftUpLeg
	{
		OFFSET 6.857671 -6.739647 0.312104
		CHANNELS 3 Xrotation Yrotation Zrotation
		JOINT mixamorig:LeftLeg
		{
			OFFSET -0.931659 -34.720940 -4.572450
			CHANNELS 3 Xrotation Yrotation Zrotation
			JOINT mixamorig:LeftFoot
			{
				OFFSET -0.195403 -34.658112 -6.067416
				CHANNELS 3 Xrotation Yrotation Zrotation
				JOINT mixamorig:LeftToeBase
				{
					OFFSET -0.556794 -11.119205 8.871495
					CHANNELS 3 Xrotation Yrotation Zrotation
					JOINT mixamorig:LeftToe_End
					{
						OFFSET -0.133473 0.333584 9.201297
						CHANNELS 3 Xrotation Yrotation Zrotation
						JOINT mixamorig:LeftToe_End_end
						{
							OFFSET 0.000000 9.208309 0.000000
							CHANNELS 3 Xrotation Yrotation Zrotation
							End Site
							{
								OFFSET 0.000000 9.208308 0.000000
							}
						}
					}
				}
			}
		}
	}
	JOINT mixamorig:RightUpLeg
	{
		OFFSET -6.876053 -6.733261 0.300989
		CHANNELS 3 Xrotation Yrotation Zrotation
		JOINT mixamorig:RightLeg
		{
			OFFSET 0.866669 -34.786114 -4.515933
			CHANNELS 3 Xrotation Yrotation Zrotation
			JOINT mixamorig:RightFoot
			{
				OFFSET 0.169025 -34.590725 -6.070333
				CHANNELS 3 Xrotation Yrotation Zrotation
				JOINT mixamorig:RightToeBase
				{
					OFFSET 0.591086 -11.123657 8.856282
					CHANNELS 3 Xrotation Yrotation Zrotation
					JOINT mixamorig:RightToe_End
					{
						OFFSET 0.176448 0.322465 9.196724
						CHANNELS 3 Xrotation Yrotation Zrotation
						JOINT mixamorig:RightToe_End_end
						{
							OFFSET 0.000000 9.204068 0.000000
							CHANNELS 3 Xrotation Yrotation Zrotation
							End Site
							{
								OFFSET 0.000000 9.204068 0.000000
							}
						}
					}
				}
			}
		}
	}
}
MOTION
Frames: 4
Frame Time: 0.033333
7.138568 78.804398 104.072975 6.970967 2.952794 -2.021540 6.191550 -3.403706 2.211183 12.505943 -7.094395 5.046421 12.514452 -7.101057 5.025465 -7.574209 2.326311 1.463671 -22.152626 15.030757 -4.587263 -0.000001 0.000000 0.000000 -0.000000 -0.000000 -0.000000 -0.000001 0.000000 0.000000 -0.000000 -0.000000 -0.000000 -0.000001 0.000000 0.000000 -0.000000 -0.000000 -0.000000 0.552165 -2.531395 -1.186077 -44.348135 -27.653010 -65.770603 0.562437 -41.720185 1.649371 2.827902 -1.793620 -13.865393 1.290653 -2.081984 -26.873562 -0.472460 -3.310262 -16.402052 0.433641 0.476230 -14.884442 -0.000001 0.000001 -0.000001 -0.000001 0.000001 0.000000 17.418487 -7.126713 -11.268039 3.026912 15.189979 4.142704 7.886787 14.733066 -0.580144 -0.000001 0.000001 0.000001 -0.000000 -0.000000 0.000001 2.392673 0.699639 -19.974355 1.890811 -1.380268 -20.583716 1.287230 -1.282497 -16.076976 -0.000000 0.000003 -0.000000 -0.000000 -0.000001 -0.000000 -4.915765 -10.872646 -27.116058 -2.042673 0.924970 -18.986912 -0.237553 2.170274 -8.913850 0.000001 -0.000000 -0.000000 -0.000000 0.000001 0.000001 -4.636889 -10.578717 -26.558670 -4.937660 -4.796808 -18.779974 -2.049855 3.748486 -15.796061 -0.000002 -0.000002 0.000001 -0.000000 -0.000000 0.000001 0.711059 -2.374369 11.489017 -19.240136 6.433947 51.066879 0.239040 19.473356 -1.462445 -31.183031 -11.255193 16.101498 1.292526 1.954950 24.326853 -0.378205 3.367543 19.285097 0.527088 -0.445703 16.310512 -0.000001 -0.000002 -0.000000 -0.000000 0.000004 -0.000004 3.393520 -7.276098 -1.006381 2.580602 -9.700217 -3.141053 6.176213 -10.128978 0.513109 -0.000001 0.000001 0.000001 -0.000000 0.000002 -0.000000 2.212026 -0.847668 17.367868 2.252830 1.548294 23.473127 1.470039 1.408948 17.634495 -0.000001 -0.000002 -0.000000 0.000000 0.000001 -0.000001 -4.501235 11.002966 24.525078 -2.229093 -1.071537 21.855994 -0.318256 -2.135859 10.429161 -0.000001 -0.000003 -0.000003 -0.000002 -0.000001 -0.000001 -6.550688 14.153288 24.430243 -4.786819 0.569488 21.319939 -2.174419 -3.964906 17.336074 -0.000000 0.000002 -0.000000 -0.000000 0.000000 -0.000002 -3.464713 12.086748 10.350318 32.225519 -6.413610 5.004929 -21.903863 1.776699 -10.445549 -21.334091 -0.000001 0.000002 -0.000001 -0.000000 -0.000000 0.000001 0.000000 0.000000 -58.588133 0.453821 -8.758960 36.387642 -8.091025 -0.157915 11.101601 -4.431282 4.900738 -0.000726 0.000000 -0.000000 -0.000000 0.000000 0.000000 -0.000001 0.000000 0.000000 
6.795030 77.053085 107.381363 7.319986 3.550719 -1.413139 6.268477 -3.443140 2.108476 12.642160 -7.016652 5.046965 12.651331 -7.019578 5.020443 -8.547751 2.044677 1.606557 -22.592043 13.827260 -4.965611 -0.000001 0.000000 -0.000000 0.000000 -0.000000 0.000000 -0.000001 0.000000 -0.000000 0.000000 -0.000000 0.000000 -0.000001 0.000000 -0.000000 0.000000 -0.000000 0.000000 0.565252 -2.138481 -2.133831 -45.636175 -27.146583 -67.082737 0.536746 -40.322073 1.632338 4.795774 -3.017270 -15.833700 1.286302 -2.075849 -26.765225 -0.472505 -3.310394 -16.403661 0.433652 0.476212 -14.885248 -0.000002 -0.000002 0.000000 -0.000000 0.000003 0.000000 17.418487 -7.126715 -11.268037 3.026914 15.189984 4.142702 7.886788 14.733072 -0.580147 -0.000001 0.000001 0.000000 -0.000000 -0.000000 0.000000 2.382722 0.707216 -19.866186 1.890950 -1.380377 -20.585316 1.287291 -1.282557 -16.077779 -0.000000 -0.000000 0.000000 -0.000001 0.000001 -0.000001 -4.903028 -10.877815 -27.005748 -2.042851 0.925010 -18.988508 -0.237630 2.170135 -8.914650 0.000001 -0.000001 -0.000001 -0.000000 0.000004 -0.000000 -4.624868 -10.583621 -26.448449 -4.937981 -4.796671 -18.781577 -2.049978 3.748526 -15.796846 -0.000001 -0.000001 -0.000001 -0.000000 0.000000 -0.000000 0.766164 -2.247748 11.886805 -20.396789 6.170076 51.437506 0.220218 17.906898 -1.456396 -33.346975 -8.295497 15.172355 1.052040 1.738244 19.726908 -0.378206 3.367542 19.285094 0.527089 -0.445706 16.310509 -0.000002 0.000001 -0.000001 0.000000 0.000002 -0.000002 3.393520 -7.276097 -1.006382 2.580604 -9.700215 -3.141052 6.176213 -10.128977 0.513109 -0.000000 0.000001 -0.000001 -0.000000 0.000001 0.000000 1.743930 -1.129029 12.773121 2.252827 1.548295 23.473123 1.470036 1.408947 17.634490 -0.000000 -0.000003 0.000002 -0.000001 -0.000001 0.000003 -3.986524 11.221436 19.839722 -2.229096 -1.071537 21.855994 -0.318254 -2.135864 10.429160 0.000002 0.000000 -0.000000 -0.000002 -0.000002 -0.000002 -5.757462 14.501928 19.692774 -4.786816 0.569487 21.319942 -2.174420 -3.964906 17.336072 0.000002 -0.000006 0.000002 0.000002 0.000003 0.000002 -2.599511 13.033854 10.492716 34.590612 -7.853306 6.168094 -22.018617 1.233433 -11.192892 -22.365767 0.000000 0.000001 -0.000002 -0.000001 -0.000000 0.000000 0.000000 -0.000000 -62.480993 1.064962 -9.832831 43.403871 -6.926844 0.165008 13.497542 -3.034777 5.714706 -0.000197 0.000000 -0.000000 -0.000000 -0.000001 0.000000 -0.000000 -0.000001 -0.000000 
6.282723 76.063965 110.717163 7.956198 3.957041 -1.132490 6.370423 -3.345569 2.121749 12.856684 -6.795581 4.928652 12.869882 -6.791655 4.898828 -9.326816 1.765516 1.632420 -22.970645 12.472352 -5.272441 -0.000001 0.000000 -0.000000 0.000000 -0.000000 0.000000 -0.000001 0.000000 -0.000000 0.000000 -0.000000 0.000000 -0.000001 0.000000 -0.000000 0.000000 -0.000000 0.000000 0.598944 -2.269785 -2.642555 -47.138165 -25.814159 -68.744727 0.498240 -38.110751 1.607737 5.717774 -4.209357 -14.551802 1.280788 -2.068007 -26.628179 -0.472552 -3.310533 -16.405266 0.433666 0.476190 -14.886052 0.000001 0.000001 0.000000 -0.000002 0.000001 -0.000000 17.418487 -7.126716 -11.268041 3.026914 15.189980 4.142705 7.886786 14.733070 -0.580142 -0.000001 0.000001 0.000001 -0.000000 0.000000 0.000001 2.370095 0.716773 -19.729367 1.891086 -1.380484 -20.586911 1.287351 -1.282620 -16.078574 0.000001 -0.000000 0.000000 0.000001 0.000003 0.000000 -4.886953 -10.884347 -26.866197 -2.043031 0.925056 -18.990103 -0.237710 2.169990 -8.915452 0.000001 -0.000002 -0.000002 0.000000 -0.000001 -0.000001 -4.609660 -10.589770 -26.309033 -4.938303 -4.796528 -18.783170 -2.050103 3.748570 -15.797637 0.000002 -0.000001 0.000000 0.000000 0.000000 -0.000000 0.846713 -1.005740 11.778698 -22.249778 6.571198 51.473327 0.186989 15.073579 -1.446974 -31.835693 -5.937614 14.881961 0.640211 1.437893 12.480086 -0.378205 3.367542 19.285099 0.527089 -0.445705 16.310511 -0.000001 0.000003 0.000002 -0.000002 -0.000001 -0.000002 3.393518 -7.276100 -1.006381 2.580600 -9.700215 -3.141054 6.176213 -10.128980 0.513106 0.000002 0.000001 0.000000 -0.000000 0.000001 0.000001 0.965024 -1.493728 5.530143 2.252828 1.548295 23.473123 1.470035 1.408949 17.634495 -0.000000 -0.000001 -0.000001 -0.000000 -0.000001 -0.000001 -3.142992 11.479855 12.449329 -2.229097 -1.071539 21.855996 -0.318252 -2.135863 10.429162 -0.000001 0.000000 -0.000002 0.000003 -0.000001 -0.000001 -4.465500 14.956130 12.210546 -4.786815 0.569487 21.319939 -2.174421 -3.964903 17.336075 0.000006 0.000001 0.000004 -0.000003 0.000002 -0.000000 -4.135486 13.509045 11.371452 38.562995 -8.743313 6.977741 -16.188385 -0.188746 -10.359763 -27.747666 0.027549 -1.421713 -0.000001 -0.000001 -0.000000 -0.000000 0.000001 -0.000000 -65.318813 1.192976 -10.645735 51.659999 -5.837663 0.813633 7.402057 -2.953531 5.789052 -0.000019 -0.000000 -0.000000 -0.000000 -0.000001 0.000000 0.000000 -0.000001 -0.000000 
5.660224 75.894379 114.026909 8.763115 4.425795 -0.913310 6.488760 -3.217646 2.115970 13.110339 -6.441927 4.658788 13.128639 -6.430400 4.628083 -9.845797 1.492337 1.535558 -23.249266 10.980529 -5.505680 -0.000001 -0.000000 -0.000000 0.000001 -0.000000 0.000000 -0.000001 -0.000000 -0.000000 0.000001 -0.000000 0.000000 -0.000001 -0.000000 -0.000000 0.000001 -0.000000 0.000000 0.653258 -2.990683 -2.603725 -47.920433 -23.909048 -70.088150 0.439961 -34.491649 1.572780 6.953491 -5.914279 -11.873733 1.273831 -2.060157 -26.470210 -0.472552 -3.310676 -16.406876 0.433678 0.476177 -14.886857 0.000000 0.000002 -0.000001 0.000000 0.000000 -0.000001 17.418488 -7.126716 -11.268043 3.026912 15.189980 4.142704 7.886788 14.733068 -0.580144 -0.000000 0.000001 -0.000000 0.000000 0.000000 -0.000000 2.355511 0.727712 -19.571654 1.891224 -1.380592 -20.588509 1.287410 -1.282678 -16.079375 -0.000001 0.000003 0.000001 -0.000001 -0.000001 0.000000 -4.868401 -10.891870 -26.705360 -2.043210 0.925102 -18.991700 -0.237784 2.169845 -8.916253 0.000002 0.000002 0.000001 -0.000001 -0.000003 -0.000000 -4.592132 -10.596822 -26.148360 -4.938622 -4.796387 -18.784765 -2.050226 3.748608 -15.798422 -0.000000 0.000001 0.000000 -0.000000 -0.000001 -0.000002 0.943644 0.811282 11.422603 -24.468864 7.594062 51.197633 0.154738 12.249310 -1.439387 -26.994390 -6.504343 15.153191 0.260019 1.223816 6.276657 -0.378211 3.367542 19.285095 0.527088 -0.445705 16.310509 0.000001 0.000003 -0.000000 0.000001 0.000000 -0.000001 3.393518 -7.276098 -1.006381 2.580601 -9.700213 -3.141052 6.176213 -10.128978 0.513106 0.000003 0.000002 0.000001 0.000000 0.000000 -0.000000 0.266171 -1.725727 -0.673422 2.252825 1.548295 23.473127 1.470035 1.408949 17.634493 -0.000001 -0.000001 0.000000 0.000001 -0.000001 0.000000 -2.398577 11.614916 6.117052 -2.229096 -1.071538 21.855994 -0.318253 -2.135862 10.429163 -0.000003 -0.000002 0.000002 0.000001 0.000000 -0.000000 -3.317101 15.212624 5.788911 -4.786814 0.569486 21.319939 -2.174420 -3.964903 17.336072 0.000003 -0.000003 -0.000000 0.000002 0.000000 -0.000000 -8.234634 12.899553 12.681295 45.289246 -9.287922 7.111998 -7.335748 -0.652655 -7.977236 -32.901096 0.500536 -4.194312 -0.000001 -0.000001 -0.000000 -0.000000 0.000000 0.000000 -65.899284 1.077203 -11.237728 56.736800 -5.324193 1.337711 2.097389 -3.259650 5.723937 -0.000055 0.000000 -0.000000 -0.000000 -0.000001 0.000000 0.000000 -0.000001 -0.000000 
